<svg xmlns="http://www.w3.org/2000/svg" viewBox="0 0 512 512" width="512" height="512"><path style="fill: currentColor;" d="M428.13 234.82l59.73-114.03a38.375 38.375 0 00-67.99-35.61l-59.73 114.03a38.14 38.14 0 00-.17 35.24l-18.5 35.33-25.89-12.94a8.014 8.014 0 00-10.53 3.19l-49.14 85.99a88.043 88.043 0 00-11.56 42.5A48.028 48.028 0 00224 384c-.34 0-.67.02-1.01.03A32.056 32.056 0 00192 360v-64h8a88.104 88.104 0 0088-88v-32a24.032 24.032 0 00-24-24h-62a89.554 89.554 0 00-72.27 36.38A89.59 89.59 0 00102 184H40a24.032 24.032 0 00-24 24v32a88.104 88.104 0 0088 88h40v33.01a32.053 32.053 0 00-14.63 8.39 32.006 32.006 0 00-40.64 23.82A31.983 31.983 0 0049.01 416H32v16h24a7.998 7.998 0 008-8 16 16 0 0132 0h16a31.851 31.851 0 00-7.66-20.74A15.98 15.98 0 01120 384c.34 0 .67.03 1 .05A16.04 16.04 0 01136 400h16a31.914 31.914 0 00-8.4-21.59 15.916 15.916 0 0118.8 1.44A31.906 31.906 0 00160 392h16a15.993 15.993 0 0131.2-4.96A48.078 48.078 0 00176 432h16a31.991 31.991 0 0156.83-20.17A32.028 32.028 0 00232 440h16a16 16 0 0132 0h16a31.814 31.814 0 00-2.94-13.37 24.007 24.007 0 0121.87.01A31.913 31.913 0 00312 440h16a16 16 0 0132 0h16a31.906 31.906 0 00-2.4-12.15A15.992 15.992 0 01400 440a7.998 7.998 0 008 8h64v-16h-57.01a31.992 31.992 0 00-45.31-20.61 88.394 88.394 0 005.25-9.61l40.32-86.4a8.012 8.012 0 00-3.67-10.54l-30.14-15.07 18.26-34.86a38.446 38.446 0 0028.43-20.09zM176 364.31a32.134 32.134 0 00-3.98 2.72 32.026 32.026 0 00-12.02-6.01V320a7.998 7.998 0 00-8-8h-16a72.083 72.083 0 01-72-72v-8H48v8a87.862 87.862 0 0032.08 67.9A72.11 72.11 0 0132 240v-32a8.01 8.01 0 018-8h62a74.089 74.089 0 0174 74zm-31.08-169.4A73.632 73.632 0 01202 168h62a8.01 8.01 0 018 8v32a72.103 72.103 0 01-48.12 67.91A88.205 88.205 0 00256 208v-8h-16v8a72.258 72.258 0 01-48 67.9V274a90.078 90.078 0 00-47.08-79.09zm252.54 120.76l-37.03 79.35a71.921 71.921 0 01-8.58 13.96 31.907 31.907 0 00-26.61 5.12A39.85 39.85 0 00304 408c-.36 0-.72.02-1.08.03l24.1-44.2-14.04-7.66-31.22 57.23a31.82 31.82 0 00-16.16-5.36 47.962 47.962 0 00-4.22-6.17 71.95 71.95 0 018.43-47.91l45.38-79.42 18.85 9.42-15.13 28.89a22.342 22.342 0 1039.58 20.74l15.52-29.64zm-53.14 10.49a6.376 6.376 0 01-5.65 3.41 6.24 6.24 0 01-3.49-1.07 6.312 6.312 0 01-2.1-8.22l38.02-72.6a38.068 38.068 0 007.92 4.6 35.585 35.585 0 003.34 1.25zm41-88.58a22.384 22.384 0 01-11-30.95L434.05 92.6a22.48 22.48 0 0128.63-10.18 22.384 22.384 0 0111 30.95L413.95 227.4a22.48 22.48 0 01-28.63 10.18z" data-name="Out line"/></svg>