<svg height="512" viewBox="0 0 128 128" width="512" xmlns="http://www.w3.org/2000/svg" data-name="Layer 1"><path style="fill: currentColor;" d="M127.752 71.435a1.75 1.75 0 00-2.131-.734l-8.5 3.275a56.148 56.148 0 00-28.579 24.776 59.089 59.089 0 0124.669-44.988l1.878-1.338a1.75 1.75 0 00-1.519-3.1A62.281 62.281 0 0079.6 74.3a76.518 76.518 0 0114.989-35.266l6.212-8.14a1.75 1.75 0 00-2.373-2.51 82.934 82.934 0 00-28.2 32.473 132.806 132.806 0 00-20.784-48.538A132 132 0 0040.318.6 1.75 1.75 0 0037.4 2.464l6.4 14.327A128.317 128.317 0 0154.095 54.1a83.306 83.306 0 00-24.523-25.715 1.75 1.75 0 00-2.373 2.51l6.212 8.14A76.518 76.518 0 0148.4 74.3a62.281 62.281 0 00-33.97-24.976 1.75 1.75 0 00-1.52 3.1l1.879 1.338a59.089 59.089 0 0124.669 44.99 56.147 56.147 0 00-28.579-24.776l-8.5-3.276a1.75 1.75 0 00-1.771 2.959l9.792 8.428A52.47 52.47 0 0128.667 121.9v2.6h-11.25a1.75 1.75 0 100 3.5h93.167a1.75 1.75 0 000-3.5H99.333a61.234 61.234 0 012.036-17.069A52.505 52.505 0 01117.6 82.087l9.794-8.428a1.75 1.75 0 00.358-2.224zM32.167 124.5v-2.6a55.966 55.966 0 00-19.481-42.465l-2.107-1.813a52.9 52.9 0 0132.327 42.65q.241 2.108.313 4.229zm23.259 0h-8.694c-.012-.407-.041-.815-.063-1.222a55.7 55.7 0 00-3.619-17.062V101.8a62.615 62.615 0 00-18.839-44.71 58.9 58.9 0 0125.141 26.022 58.965 58.965 0 016.074 26.067zm6.825 0h-3.326v-7.253-8.086c0-1.2-.045-2.386-.111-3.569v-.009a62.514 62.514 0 00-6.177-23.9 79.57 79.57 0 00-14.048-41.467 77.252 77.252 0 0123.557 51.3q.1 1.963.1 3.93zm-3.958-62.575A131.888 131.888 0 0047 15.363l-.548-1.229a128.837 128.837 0 018.8 14.658 129.169 129.169 0 018.56 21.088 129.31 129.31 0 013.929 16.631A80.028 80.028 0 0064 78.892a79.677 79.677 0 00-5.707-16.967zM69.075 124.5H65.75V95.45a75.908 75.908 0 015-26.967 78.411 78.411 0 0118.66-28.266 79.573 79.573 0 00-14.047 41.465 62.5 62.5 0 00-6.163 23.687c-.392 6.349-.125 12.772-.125 19.131zm12.193 0h-8.693v-15.339a60.454 60.454 0 01.4-6.878 59.174 59.174 0 0130.815-45.19A62.615 62.615 0 0084.95 101.8v4.412a55.7 55.7 0 00-3.619 17.063c-.022.41-.051.818-.063 1.225zm34.047-45.065a56.355 56.355 0 00-19.177 36.632 81.959 81.959 0 00-.3 8.434H84.781q.07-2.123.314-4.234a52.9 52.9 0 0132.327-42.645z"/></svg>