<svg xmlns="http://www.w3.org/2000/svg" viewBox="0 0 512 512" width="512" height="512"><path style="fill: currentColor;" d="M16 405.622a8 8 0 005.463 7.586c1.946.652 33.237 10.86 78.156 10.86a282.684 282.684 0 0077.859-10.756c45.783-13.125 74.09-38.053 90.605-58.646a39.8 39.8 0 006.609 3.049c21.452 36.4 73.235 62.333 132.781 66.267.175.012.351.018.527.018h41.376A24 24 0 00496 416v-32a24 24 0 00-46.624-8h-41.09c-37.81-2.739-71.167-15.885-86.931-33.956a39.887 39.887 0 000-44.088c15.764-18.071 49.121-31.217 86.931-33.956h41.09A24 24 0 00496 256v-32a24 24 0 00-46.624-8H408c-.176 0-.352.006-.527.018-59.546 3.934-111.329 29.863-132.781 66.267a39.8 39.8 0 00-6.609 3.049c-16.515-20.593-44.822-45.521-90.605-58.646q-9.733-2.79-19.205-4.755A108.636 108.636 0 01165.016 200H192a72.081 72.081 0 0072-72V80a8 8 0 00-8-8h-32a72.058 72.058 0 00-64 39.079A72.058 72.058 0 0096 72H64a8 8 0 00-8 8v48a72.081 72.081 0 0072 72h19.8a129.6 129.6 0 00-5.28 19.108c-66.8-10.023-118.533 6.84-121.054 7.684a8 8 0 000 15.173l123.176 41.2a170.371 170.371 0 0016.368 40.722 8 8 0 0013.986-7.77 161.526 161.526 0 01-11.935-26.792l85.009 28.432c-.042.744-.067 1.491-.067 2.245s.025 1.5.067 2.245l-226.6 75.79a8 8 0 00-5.47 7.585zM464 384a8 8 0 0116 0v32a8 8 0 01-16 0zm0-160a8 8 0 0116 0v32a8 8 0 01-16 0zm-296-80a56.063 56.063 0 0156-56h24v40a56.063 56.063 0 01-56 56h-14.606l36.68-42.793a8 8 0 00-12.148-10.414L168 170.374zM53.556 235.828a282.374 282.374 0 0186.782-.828 145.113 145.113 0 00.827 30.131zM432 392h16v16h-16zm-24.566-.02c.188.013.377.02.566.02h8v16h-7.733c-48.611-3.269-91.148-21.914-113-48.674a39.775 39.775 0 0014.76-5.963c18.98 21.037 55.401 35.637 97.407 38.617zM432 232h16v16h-16zm-23.733 0H416v16h-8a8.21 8.21 0 00-.566.02c-42.006 2.983-78.427 17.578-97.4 38.617a39.775 39.775 0 00-14.76-5.963c21.845-26.76 64.382-45.405 112.993-48.674zM288 296a24 24 0 11-24 24 24.028 24.028 0 0124-24zM152 170.374l-33.926-39.581a8 8 0 00-12.148 10.414L142.606 184H128a56.063 56.063 0 01-56-56V88h24a56.063 56.063 0 0156 56zm6.2 100.454a128.568 128.568 0 01-2.019-32.965 252.008 252.008 0 0116.886 4.206c42.278 12.119 68.111 35.1 83 53.869a40.063 40.063 0 00-3.906 6.317zm93.965 66.917a40.063 40.063 0 003.906 6.317c-14.893 18.772-40.726 41.75-83 53.869-48.126 13.8-92.438 10.677-119.452 6.221z"/><circle style="fill: currentColor;" cx="288" cy="320" r="8"/></svg>