<svg id="Capa_1" enable-background="new 0 0 512 512" height="512" viewBox="0 0 512 512" width="512" xmlns="http://www.w3.org/2000/svg"><g><path d="m256 241.985h-45v120h45 45v-120z" fill="#576073"/><path d="m256 241.985h45v120h-45z" fill="#434b59"/><path d="m256 346.333-166-14.348v180h166 181v-150z" fill="#ff7f40"/><path d="m437 361.985-181-15.652v165.652h181z" fill="#f25a3c"/><g><path d="m81.636 348.333-20.991-293.753-55.459-27.729 13.418-26.836 70.751 35.376 22.193 310.803z" fill="#434b59"/></g><circle cx="437" cy="436.985" fill="#434b59" r="75"/><circle cx="437" cy="436.985" fill="#e1e6f0" r="45"/><g><path d="m422 421.985h30v30h-30z" fill="#434b59"/></g><path d="m90 511.985c-49.706 0-90-40.294-90-90 0-49.706 40.294-90 90-90 49.706 0 90 40.294 90 90 0 49.706-40.294 90-90 90z" fill="#576073"/><circle cx="90" cy="421.985" fill="#f3f5f9" r="60"/><g><path d="m75 406.985h30v30h-30z" fill="#576073"/></g><path d="m301 211.985h-45-45c-16.569 0-30 13.431-30 30v30h75 75v-30c0-16.569-13.431-30-30-30z" fill="#ff7f40"/><path d="m331 241.985c0-16.569-13.431-30-30-30h-45v60h75z" fill="#f25a3c"/></g></svg>