<svg height="512" viewBox="0 0 62 60" width="512" xmlns="http://www.w3.org/2000/svg"><path style="fill: currentColor;" d="M56.33 8a7 7 0 00-13 1 4.501 4.501 0 10.21 9H56a5.003 5.003 0 00.33-10zM56 16H43.5a2.51 2.51 0 11.43-5 1 1 0 001.14-.83 5 5 0 019.16-1.88 4.93 4.93 0 00-2.42 1.95 1 1 0 001.68 1.08 3 3 0 012.2-1.32h.23a3 3 0 11.08 6zM31 14c3.31 0 6-3.14 6-7s-2.69-7-6-7-6 3.14-6 7 2.69 7 6 7zm0-12c2.21 0 4 2.24 4 5s-1.79 5-4 5-4-2.24-4-5 1.79-5 4-5zM22.23 18.71l-2 5.9a3.89 3.89 0 00.05 2.67c1.93 5 1.82 4.92 2.33 5.52C20 44.69 20.45 43 20.18 43.61l-1.61 3.84c-1-.59-1.69-.45-3.57-.45a3 3 0 00-3 3c0 7.81-.06 7.31.18 8H8a1 1 0 000 2h46a1 1 0 000-2h-4.18c.24-.7.18-.21.18-8a3 3 0 00-3-3c-1.85 0-2.62-.13-3.57.45-.21-.52-1.65-3.93-1.8-4.3L39.41 32.8c.5-.6.36-.42 2.33-5.52a3.89 3.89 0 000-2.67l-2-5.9A4 4 0 0036 16H26a4 4 0 00-3.77 2.71zM28.17 32h5.66a3.27 3.27 0 003.77 1.91l1.12 5.2C38.13 39 38.39 39 32 39v-2a1 1 0 00-2 0v2c-6.5 0-6.17 0-6.72.11l1.12-5.21a3.27 3.27 0 003.77-1.9zm14 26H19.82c.26-.74.18-1.14.18-3h22c0 2.1-.06 2.32.18 3zM15 58a1 1 0 01-1-1v-7a1 1 0 011-1h2a1 1 0 011 1v7a1 1 0 01-1 1zm30-9h2a1 1 0 011 1v7a1 1 0 01-1 1h-2a1 1 0 01-1-1v-7a1 1 0 011-1zm-3 1v3H20c0-4.7-.33-3 1.76-8H25a1 1 0 000-2h-2.4l.68-1.62a1 1 0 01.79-.38h13.86a1 1 0 01.79.38L39.4 43H29a1 1 0 000 2h11.24C42 49.11 42 48.93 42 50zM26 18h10a2 2 0 011.89 1.35l2 5.91c.15.42.15.88 0 1.3l-1.78 4.62a1.24 1.24 0 01-.72.73 1.29 1.29 0 01-1.74-1.54L37 26.53c.25-.74.1-.89-.91-4.81a1 1 0 00-1.93.49l.94 3.68c-1.58 4.64-1.28 3.71-1.38 4.11h-5.39A41.19 41.19 0 0027 25.9l.94-3.69a1 1 0 10-1.94-.49l-1 3.68c-.19.76-.06.82 1.36 5a1.28 1.28 0 01-1.74 1.54 1.24 1.24 0 01-.72-.73l-1.78-4.62a1.93 1.93 0 010-1.3l2-5.91A2 2 0 0126 18z"/><path style="fill: currentColor;" d="M25 49h-2a1 1 0 000 2h2a1 1 0 000-2zM31 49h-2a1 1 0 000 2h2a1 1 0 000-2zM9 36a1 1 0 001 1h5a1 1 0 000-2h-5a1 1 0 00-1 1zM17.71 31.29l-3-3a1.004 1.004 0 10-1.42 1.42l3 3a1.004 1.004 0 101.42-1.42zM16.29 39.29l-3 3a1.004 1.004 0 001.42 1.42l3-3a1.004 1.004 0 00-1.42-1.42zM46 36a1 1 0 001 1h5a1 1 0 000-2h-5a1 1 0 00-1 1zM47.29 28.29l-3 3a1.004 1.004 0 001.42 1.42l3-3a1.004 1.004 0 10-1.42-1.42zM44.29 40.71l3 3A1 1 0 0048 44a1 1 0 00.71-1.71l-3-3a1.004 1.004 0 00-1.42 1.42zM18.71 5a7 7 0 00-13-1A5.002 5.002 0 106 14h12.5a4.501 4.501 0 00.21-9zm-.21 7H6a3 3 0 112.51-4.64 1 1 0 001.68-1.08 4.93 4.93 0 00-2.42-1.95 5 5 0 019.16 1.88 1 1 0 001.14.79 2.51 2.51 0 11.43 5zM2 60h2a1 1 0 000-2H2a1 1 0 000 2zM60 58h-2a1 1 0 000 2h2a1 1 0 000-2z"/></svg>