<svg xmlns="http://www.w3.org/2000/svg" viewBox="0 0 480 480">
  <path fill="currentColor" d="M232 144h16v48h-16zM250.335 194.344l39.994-39.994 11.313 11.314-39.993 39.993zM264 208h48v16h-48zM178.336 165.651l11.314-11.313 39.993 39.993-11.313 11.314zM168 208h48v16h-48zM120 208h32v16h-32zM88 208h16v16H88zM56 208h16v16H56zM24 208h16v16H24zM138.346 125.657l11.314-11.314 24.002 24.002-11.314 11.313zM106.346 93.648l11.313-11.314 15.998 15.997-11.314 11.314zM74.347 61.647l11.314-11.313 15.997 15.997-11.313 11.314zM42.34 29.655l11.314-11.313 15.998 15.997-11.314 11.314zM232 96h16v32h-16zM232 64h16v16h-16zM232 32h16v16h-16zM232 0h16v16h-16zM306.345 138.34l24.002-24.002 11.313 11.313-24.001 24.002zM346.34 98.387l15.997-15.997 11.314 11.313-15.998 15.998zM378.34 66.34l15.997-15.997 11.314 11.314-15.998 15.997zM410.34 34.341l15.997-15.997 11.313 11.313-15.997 15.998zM328 208h32v16h-32zM376 208h16v16h-16zM408 208h16v16h-16zM440 208h16v16h-16zM272 440v-56h16v-51.312l-16-16v-11.544a71.535 71.535 0 0121.088-50.912L307.312 240H172.688l14.224 14.224A71.535 71.535 0 01208 305.144v11.544l-16 16V384h16v56H0v40h480v-40H272zm-1.032-184A87.386 87.386 0 00256 305.144V312h-32v-6.856A87.386 87.386 0 00209.032 256h61.936zM208 339.312L219.312 328h41.376L272 339.312V368h-64v-28.688zM256 384v56h-32v-56h32zm208 80H16v-8h448v8z"/>
</svg>