<svg id="Capa_1" enable-background="new 0 0 512 512" height="512" viewBox="0 0 512 512" width="512" xmlns="http://www.w3.org/2000/svg"><g><path d="m241 306.848h30v60.048h-30z" fill="#9bb9c3"/><path d="m241 66.72h30v30.024h-30z" fill="#7ed8f6"/><path d="m241 0h30v30.024h-30z" fill="#7ed8f6"/><g fill="#6aa9ff"><path d="m241 133.44h30v30.024h-30z"/><path d="m241 200.16h30v30.024h-30z"/><path d="m376.096 96.744h30v30.024h-30z"/></g><path d="m105.904 96.744h30v30.024h-30z" fill="#7ed8f6"/><path d="m406.12 30.024h30v30.024h-30z" fill="#6aa9ff"/><path d="m75.88 30.024h30v30.024h-30z" fill="#7ed8f6"/><path d="m346.072 163.464h30v30.024h-30z" fill="#6aa9ff"/><path d="m135.928 163.464h30v30.024h-30z" fill="#7ed8f6"/><path d="m316.048 230.184h30v30.024h-30z" fill="#6aa9ff"/><path d="m165.952 230.184h30v30.024h-30z" fill="#7ed8f6"/><path d="m316.036 421.952v-70.056h-60.036l-20.016 90.072z" fill="#cde1e6"/><path d="m346.036 291.848h-90.036l-10.008 15 10.008 15h90.036z" fill="#cde1e6"/><path d="m195.964 421.952 60.036 20.016v-90.072h-60.036z" fill="#ebebf0"/><path d="m512 421.952h-256l-20.016 45.024 20.016 45.024h256z" fill="#00cc76"/><path d="m0 421.952h256v90.048h-256z" fill="#a5e887"/><path d="m165.964 291.848h90.036v30h-90.036z" fill="#ebebf0"/></g></svg>