<svg height="512" viewBox="0 0 512 512" width="512" xmlns="http://www.w3.org/2000/svg">
  <path fill="#fff" d="M10 355.978v40h492v-44l-35 4h-40s-70.564-23.03-95-23c-24.193.029-94 23-94 23h-40s-69.807-23-94-23-94 23-94 23z"/>
  <path d="M163 253.978h110v40H163z" fill="#fff"/>
  <path d="M238 293.978v62h-40v-62z" fill="#000"/>
  <path d="M392 253.978h110v40H392z" fill="#fff"/>
  <path d="M467 293.978v62h-40v-62z" fill="#000"/>
  <path d="M133.315 125.74c.839-.026 9.428.237 9.692.237 5.168 0 9.549-3.92 9.962-9.085.435-5.429-3.677-10.177-9.185-10.606-2.612-.204-10.026-.291-11.09-.258-5.523.169-9.86 4.719-9.688 10.162.171 5.445 4.818 9.734 10.309 9.55zM331.97 342.978h.021c5.51-.01 9.989-4.51 9.97-10.02-.01-5.5-4.49-9.98-9.99-9.98h-.03a9.943 9.943 0 00-7.06 2.94 9.912 9.912 0 00-2.91 7.08c.008 5.5 4.489 9.98 9.999 9.98zM199.863 157.858a9.985 9.985 0 007.998 3.987 9.958 9.958 0 006.005-2.01c4.413-3.321 5.298-9.59 1.977-14.003a101.099 101.099 0 00-7.15-8.483c-3.787-4.02-10.115-4.208-14.136-.422-4.02 3.787-4.209 10.116-.422 14.136a80.827 80.827 0 015.728 6.795zM64.43 152.468a9.963 9.963 0 006.261-2.208c2.35-1.89 4.832-3.72 7.377-5.438 4.577-3.091 5.782-9.307 2.691-13.884s-9.306-5.783-13.884-2.691a130.495 130.495 0 00-8.72 6.43c-4.303 3.461-4.986 9.756-1.524 14.06a9.987 9.987 0 007.799 3.731zM30 216.269c5.523 0 10-4.477 10-10 0-2.809.215-5.653.64-8.456.827-5.46-2.929-10.558-8.39-11.385-5.461-.822-10.557 2.929-11.385 8.39A76.726 76.726 0 0020 206.269c0 5.523 4.477 10 10 10zM123.329 184.384c.996 0 2.008-.15 3.008-.465a48.527 48.527 0 018.078-1.802c5.473-.739 9.311-5.775 8.572-11.248-.739-5.474-5.779-9.313-11.248-8.572a68.555 68.555 0 00-11.412 2.547c-5.268 1.66-8.192 7.275-6.533 12.543 1.344 4.267 5.285 6.997 9.535 6.997zM72.965 219.369A70.303 70.303 0 0072 230.978c0 5.523 4.477 10 10 10s10-4.477 10-10c0-2.784.232-5.574.689-8.292.916-5.447-2.757-10.604-8.204-11.52-5.442-.913-10.604 2.756-11.52 8.203zM185.408 210.106a10 10 0 009.073 5.784 9.962 9.962 0 004.212-.936c5.008-2.33 7.178-8.278 4.849-13.285a69.473 69.473 0 00-5.795-10.125c-3.136-4.545-9.365-5.689-13.91-2.551-4.545 3.137-5.688 9.364-2.551 13.91a49.538 49.538 0 014.122 7.203z"/>
  <path d="M502 303.978c5.522 0 10-4.477 10-10v-40c0-5.523-4.478-10-10-10H392c-5.522 0-10 4.477-10 10v40c0 5.523 4.478 10 10 10h25v38.374c-9.844-3.021-23.977-7.204-38.271-10.914a9.991 9.991 0 00-12.19 7.17c-1.391 5.34 1.83 10.81 7.17 12.19 12.979 3.36 52.27 15.18 53.29 15.18l41.14-.06 23.86-2.73v22.79H20v-22.71c7.64-2.41 57.38-16.17 64.78-17.67 7.97-1.64 15.175-2.62 19.145-2.62 4.51 0 13.125 1.23 22.855 3.37 15.13 3.28 70.2 19.63 71.22 19.63h40c1.04 0 33.359-10.06 52.28-15.03a9.942 9.942 0 006.09-4.63c1.35-2.31 1.72-5 1.04-7.58-1.16-4.4-5.13-7.47-9.67-7.47-.851 0-1.71.12-2.54.34-13.89 3.649-27.588 7.738-37.2 10.712v-38.341h25c5.522 0 10-4.477 10-10v-40c0-5.523-4.478-10-10-10H163c-5.523 0-10 4.477-10 10v40c0 5.523 4.477 10 10 10h25v38.334c-6.799-2.105-48-13.564-56.99-15.514-8.72-1.87-18.75-3.78-27.01-3.82-8.26.04-18.29 1.95-27.01 3.82-27.84 6.05-63.07 17.38-69.85 19.6-.17.05-.26.08-.27.08a9.977 9.977 0 00-6.87 9.5v40c0 2.63 1.07 5.21 2.93 7.07s4.44 2.93 7.07 2.93h492c2.63 0 5.21-1.07 7.069-2.93a10.077 10.077 0 002.931-7.07v-44c0-2.85-1.22-5.57-3.34-7.46s-4.971-2.8-7.801-2.48L477 344.769v-40.791zm-274 42h-20v-42h20zm-55-62v-20h90v20zm284 62h-20v-42h20zm-55-62v-20h90v20zM259 216.269c5.522 0 10-4.477 10-10 0-2.811.215-5.656.64-8.456.827-5.46-2.93-10.558-8.39-11.385-5.464-.823-10.558 2.929-11.385 8.39a76.686 76.686 0 00-.865 11.451c0 5.523 4.477 10 10 10zM293.43 152.467c2.2 0 4.414-.723 6.262-2.208 2.35-1.89 4.832-3.72 7.377-5.438 4.577-3.091 5.782-9.307 2.691-13.884-3.09-4.577-9.309-5.78-13.883-2.691a130.258 130.258 0 00-8.721 6.43c-4.304 3.461-4.986 9.756-1.524 14.06a9.982 9.982 0 007.798 3.731zM362.315 125.74c.839-.026 9.428.237 9.692.237 5.168 0 9.549-3.92 9.962-9.085.435-5.429-3.677-10.177-9.185-10.606-2.612-.204-10.026-.291-11.09-.258-5.523.169-9.86 4.719-9.688 10.162.171 5.445 4.818 9.734 10.309 9.55zM428.863 157.859a9.984 9.984 0 007.997 3.986 9.953 9.953 0 006.006-2.011c4.413-3.321 5.297-9.591 1.976-14.003a101.238 101.238 0 00-7.148-8.481c-3.786-4.021-10.115-4.209-14.136-.424-4.021 3.786-4.211 10.115-.425 14.136a81.068 81.068 0 015.73 6.797zM414.407 210.105a10 10 0 009.073 5.784 9.965 9.965 0 004.212-.936c5.007-2.33 7.178-8.278 4.848-13.285a69.401 69.401 0 00-5.794-10.125c-3.137-4.544-9.363-5.689-13.91-2.551-4.546 3.137-5.688 9.364-2.551 13.91a49.617 49.617 0 014.122 7.203zM352.328 184.384a10 10 0 003.008-.465 48.574 48.574 0 018.078-1.803c5.474-.739 9.312-5.775 8.572-11.248-.739-5.474-5.77-9.313-11.248-8.572a68.6 68.6 0 00-11.412 2.547c-5.268 1.66-8.192 7.275-6.533 12.542a10.004 10.004 0 009.535 6.999zM301.966 219.369a70.193 70.193 0 00-.966 11.608c0 5.523 4.478 10 10 10s10-4.477 10-10c0-2.784.231-5.574.688-8.292.916-5.447-2.757-10.604-8.203-11.52-5.452-.918-10.603 2.758-11.519 8.204z"/>
</svg>