<svg xmlns="http://www.w3.org/2000/svg" viewBox="0 0 512 512">
  <g fill="#ebba16">
    <path d="M503.322 199.597c-4.79 0-8.678-3.888-8.678-8.678 0-95.701-77.859-173.559-173.559-173.559-4.79 0-8.678-3.888-8.678-8.678s3.888-8.678 8.678-8.678C426.358.004 512 85.647 512 190.919a8.68 8.68 0 01-8.678 8.678z"/>
    <path d="M451.255 199.597c-4.79 0-8.678-3.888-8.678-8.678 0-66.994-54.498-121.492-121.492-121.492-4.79 0-8.678-3.888-8.678-8.678s3.888-8.678 8.678-8.678c76.566 0 138.847 62.29 138.847 138.847a8.68 8.68 0 01-8.677 8.679z"/>
    <path d="M399.187 199.597c-4.79 0-8.678-3.888-8.678-8.678 0-38.279-31.145-69.424-69.424-69.424-4.79 0-8.678-3.888-8.678-8.678s3.888-8.678 8.678-8.678c47.85 0 86.78 38.929 86.78 86.78a8.68 8.68 0 01-8.678 8.678z"/>
  </g>
  <path d="M503.305 385.514v75.767c.113 27.9-22.459 50.601-50.41 50.714a48.663 48.663 0 01-4.764-.208 501.41 501.41 0 01-218.398-77.538A493.03 493.03 0 0177.895 282.706 499.083 499.083 0 01.209 63.744C-2.308 35.957 18.224 11.398 46.063 8.89a48.83 48.83 0 014.504-.208h75.924c25.4-.252 47.061 18.337 50.61 43.442a323.697 323.697 0 0017.712 70.968c6.951 18.458 2.508 39.268-11.385 53.291l-32.143 32.074C187.307 271.685 239.766 324.039 303.123 360l32.143-32.074c14.05-13.867 34.903-18.302 53.396-11.368a325.358 325.358 0 0071.116 17.677c25.451 3.594 44.169 25.636 43.527 51.279z" fill="#23a24d"/>
  <g fill="#177734">
    <path d="M52.068 156.208a8.692 8.692 0 01-8.313-6.196c-8.444-28.29-14.379-58.238-17.66-89.019-.781-8.747 3.679-15.117 5.632-17.451 2.43-2.907 7.836-7.923 16.679-8.721.72-.069 1.441-.104 2.161-.104h70.925c4.799 0 8.678 3.896 8.678 8.687s-3.888 8.669-8.678 8.669H50.576c-3.228.26-4.808 1.736-5.528 2.586-.443.538-1.874 2.439-1.675 4.643 3.15 29.583 8.878 58.481 17.017 85.747a8.676 8.676 0 01-8.322 11.159zM452.791 485.97c-.208 0-1.658-.035-2.369-.104-30.859-3.35-60.564-9.268-88.428-17.616-4.591-1.38-7.203-6.213-5.823-10.804s6.231-7.203 10.804-5.823c26.858 8.044 55.513 13.755 85.166 16.974l.798.017c1.718-.009 3.523-.764 4.886-2.135a7.234 7.234 0 002.1-5.163l.009-70.804c0-4.79 3.888-8.678 8.678-8.678 4.79 0 8.678 3.888 8.678 8.678l-.009 70.769a24.474 24.474 0 01-7.133 17.425c-4.627 4.661-10.788 7.238-17.357 7.264z"/>
  </g>
</svg>